<?xml version="1.0" encoding="UTF-8"?><svg xmlns="http://www.w3.org/2000/svg" xmlns:xlink="http://www.w3.org/1999/xlink" viewBox="0 0 542.95 433.64"><defs><style>.g{fill:url(#f);}.h{fill:url(#d);}.i{fill:url(#e);}</style><linearGradient id="d" x1="237.31" y1="340.72" x2="390.09" y2="117.35" gradientTransform="matrix(1, 0, 0, 1, 0, 0)" gradientUnits="userSpaceOnUse"><stop offset="0" stop-color="#183307"/><stop offset="1" stop-color="#397214"/></linearGradient><linearGradient id="e" x1="0" y1="225.31" x2="302.74" y2="225.31" gradientTransform="matrix(1, 0, 0, 1, 0, 0)" gradientUnits="userSpaceOnUse"><stop offset="0" stop-color="#55a521"/><stop offset="1" stop-color="#23490a"/></linearGradient><linearGradient id="f" x1="293.01" y1="216.37" x2="542.95" y2="216.37" xlink:href="#e"/></defs><g id="a"/><g id="b"><g id="c"><g><path class="h" d="M221.16,265.72c12.2-2.8,29.28-8.83,41-23.6,18.98-23.91,8.63-51.46,16.4-93.98,4.09-22.35,10.03-49.97,30.91-75.06,7.31-8.78,29.63-35.6,50.11-31.46,21.14,4.27,37.57,40.97,34.89,90.76-35.09,32.97-48.37,63.87-54.09,85.66-17.29,65.96,14.33,126.69-23.35,167.99-5.56,6.1-11.07,10.07-14.3,12.19-36.89-.98-69.67-22-83.99-53.96-16.97-37.88-.1-73.48,2.41-78.55Z"/><path class="i" d="M100.87,386.01c-10.29,6.85-38.41,23.53-75.67,20.52-7.31-.59-13.99-1.86-19.97-3.47-6.34-1.7-7.12-10.29-1.23-13.19,42.06-20.71,78.18-67.34,78.18-67.34,1.59-7.57,4.47-19,9.88-32.17,16.65-40.49,39.59-54.4,53.34-73.61,37.23-51.99,8.98-145.39-8.1-190.18-2.61-6.84,5.68-12.61,11.24-7.85,61.88,53.01,79.87,100.94,85.03,134.76,12.72,83.38-42.46,146.84-8.41,200.37,18.77,29.52,54.49,40,77.58,44.36-14.8,11.22-48.58,33.35-95.46,35.11-20.58,.77-64.78,2.43-94.4-29.23-14.22-15.19-19.84-32.45-22.29-43.1"/><path class="g" d="M293.01,98.89c21.2-35.65,46.61-56.68,65.66-51.89,7.01,1.76,22,9.02,31.54,55.09,26.67,128.79-65.22,217.06-21.87,284.26,21.12,32.75,66.61,54.13,104.29,43.73,37.8-10.43,66.83-52.7,70.3-106.61,.3-4.64-3.94-8.32-8.49-7.38-32.14,6.68-47.26-.4-55.08-7.12-36.12-31.07,19.05-110.2-10.1-219.41-6.47-24.26-21.49-79.35-57.19-88.31-35.48-8.9-84.11,29.67-119.06,97.63Z"/></g></g></g></svg>